<svg width="386" height="114" viewBox="0 0 386 114" fill="none" xmlns="http://www.w3.org/2000/svg">
<path d="M130.547 87.8314C93.2094 112.066 68.3319 35.6492 65.1803 31.1231C43.2638 -29.751 102.368 60.9959 130.547 87.8314Z" fill="#FFB800"/>
<path d="M0.455461 20.4525C36.5152 -7.45823 66.0821 72.297 69.5192 76.9238C95.1811 140.336 30.3709 47.3353 0.455461 20.4525Z" fill="#3ADCFF"/>
<path d="M171.976 53.456C171.976 57.3387 170.547 60.496 167.688 62.928C164.829 65.3173 160.947 66.512 156.04 66.512C151.133 66.512 147.08 65.616 143.88 63.824V53.904C147.763 56.72 151.901 58.128 156.296 58.128C157.789 58.128 159.027 57.744 160.008 56.976C160.989 56.1653 161.48 55.12 161.48 53.84C161.48 52.9013 161.245 52.1973 160.776 51.728C160.307 51.2587 159.901 50.9173 159.56 50.704C159.261 50.448 158.792 50.1707 158.152 49.872C157.555 49.5307 157.043 49.2533 156.616 49.04C155.293 48.4 153.992 47.8027 152.712 47.248C149.939 45.968 147.699 44.3893 145.992 42.512C144.328 40.6347 143.496 37.9893 143.496 34.576C143.496 31.1627 144.861 28.3253 147.592 26.064C150.323 23.76 153.971 22.608 158.536 22.608C163.101 22.608 166.941 23.3333 170.056 24.784V34C166.6 31.9947 163.016 30.992 159.304 30.992C157.64 30.992 156.36 31.3333 155.464 32.016C154.611 32.6987 154.184 33.5733 154.184 34.64C154.184 35.7067 154.717 36.6667 155.784 37.52C156.851 38.3307 158.237 39.12 159.944 39.888C161.693 40.656 162.995 41.2747 163.848 41.744C164.744 42.1707 165.747 42.7893 166.856 43.6C168.008 44.368 168.904 45.1787 169.544 46.032C171.165 48.1653 171.976 50.64 171.976 53.456ZM180.467 78.672C179.144 78.672 177.95 78.5653 176.883 78.352V70.928C177.566 71.0987 178.291 71.184 179.059 71.184C182.6 71.184 185.16 69.2853 186.739 65.488L174.195 33.552H184.371C188.51 45.4133 190.835 52.56 191.347 54.992C191.902 52.9013 194.12 45.7547 198.003 33.552H207.603L195.891 65.04C192.52 74.128 187.379 78.672 180.467 78.672ZM241.538 66H232.194V46.672C232.194 44.752 231.746 43.3013 230.85 42.32C229.954 41.296 228.674 40.784 227.01 40.784C225.346 40.784 223.938 41.4667 222.786 42.832C221.676 44.1547 221.122 46.16 221.122 48.848V66H211.778V33.552H221.122V39.056C221.932 37.264 223.17 35.856 224.833 34.832C226.54 33.7653 228.567 33.232 230.914 33.232C234.242 33.232 236.844 34.2347 238.722 36.24C240.599 38.2027 241.538 41.104 241.538 44.944V66ZM262.919 30.736H259.079V44.24H262.343C267.548 44.24 270.151 41.872 270.151 37.136C270.151 32.8693 267.74 30.736 262.919 30.736ZM264.071 52.048H259.079V66H249.223V22.864H264.071C268.849 22.864 272.711 24.208 275.655 26.896C278.641 29.584 280.135 33.1467 280.135 37.584C280.135 42.0213 278.577 45.5413 275.463 48.144C272.391 50.7467 268.593 52.048 264.071 52.048ZM293.413 66.192C290.256 66.192 287.781 65.296 285.989 63.504C284.24 61.712 283.365 59.3653 283.365 56.464C283.365 53.5627 284.496 51.2587 286.757 49.552C289.061 47.8027 292.453 46.928 296.933 46.928H301.029V44.688C301.029 41.9573 299.237 40.592 295.653 40.592C292.112 40.592 288.848 41.5733 285.861 43.536V35.152C288.421 33.7013 292.048 32.976 296.741 32.976C301.477 32.976 304.976 33.9787 307.237 35.984C309.498 37.9467 310.629 41.0187 310.629 45.2V66H301.477V62.032C300.112 64.8053 297.424 66.192 293.413 66.192ZM296.869 59.6C298.192 59.6 299.216 59.1947 299.941 58.384C300.666 57.5733 301.029 56.464 301.029 55.056V52.688H298.021C296.442 52.688 295.226 53.0293 294.373 53.712C293.52 54.3947 293.093 55.2693 293.093 56.336C293.093 58.512 294.352 59.6 296.869 59.6ZM332.429 41.04C330.552 41.04 329.08 41.7653 328.013 43.216C326.946 44.6667 326.413 46.7147 326.413 49.36C326.413 51.9627 326.925 53.968 327.949 55.376C328.973 56.784 330.466 57.488 332.429 57.488C334.392 57.488 335.928 56.7413 337.037 55.248C338.189 53.712 338.765 51.8773 338.765 49.744C338.765 43.9413 336.653 41.04 332.429 41.04ZM348.045 62.864C348.045 68.0693 346.488 71.9733 343.373 74.576C340.258 77.2213 336.376 78.544 331.725 78.544C327.117 78.544 323.106 77.7333 319.693 76.112V66.576C322.68 68.9653 326.349 70.16 330.701 70.16C333.517 70.16 335.565 69.5627 336.845 68.368C338.125 67.1733 338.765 65.296 338.765 62.736V60.56C336.888 63.4613 334.029 64.912 330.189 64.912C326.349 64.912 323.128 63.5893 320.525 60.944C317.965 58.2987 316.685 54.5227 316.685 49.616C316.685 44.7093 317.922 40.7627 320.397 37.776C322.914 34.7467 326.136 33.232 330.061 33.232C334.029 33.232 336.93 34.768 338.765 37.84V33.552H348.045V62.864ZM369.163 40.336C367.669 40.336 366.347 40.8907 365.195 42C364.043 43.0667 363.275 44.6667 362.891 46.8H374.155V46.032C373.856 42.2347 372.192 40.336 369.163 40.336ZM380.875 64.144C378.656 65.5947 375.072 66.32 370.123 66.32C365.173 66.32 361.205 64.784 358.219 61.712C355.275 58.5973 353.803 54.544 353.803 49.552C353.803 44.5173 355.232 40.5493 358.091 37.648C360.992 34.704 364.576 33.232 368.843 33.232C373.152 33.232 376.565 34.512 379.083 37.072C381.6 39.5893 382.859 43.3653 382.859 48.4C382.859 49.3813 382.688 51.0667 382.347 53.456H363.275C363.915 55.248 365.024 56.6347 366.603 57.616C368.181 58.5973 370.08 59.088 372.299 59.088C375.584 59.088 378.443 58.1707 380.875 56.336V64.144Z" fill="#534ABA"/>
</svg>
